<svg viewBox="0 0 1920 367" fill="none" xmlns="http://www.w3.org/2000/svg">
<g clip-path="url(#clip0_4461_358)">
<mask id="path-1-inside-1_4461_358" fill="white">
<path d="M0 0H1920V367H0V0Z"/>
</mask>
<g clip-path="url(#clip1_4461_358)">
<path fill-rule="evenodd" clip-rule="evenodd" d="M1834.55 41.9628C1834.02 41.2015 1833.25 41.4783 1833.73 38.1841C1835.52 32.7889 1833.24 39.1973 1833.45 38.281C1833.71 39.8728 1834.69 39.0977 1835.29 39.0118C1835.11 39.7261 1834.86 40.8776 1834.55 41.9628Z" fill="#1A1A1A"/>
<path fill-rule="evenodd" clip-rule="evenodd" d="M1885.71 377.661C1892.88 371.266 1899.2 365.187 1905.34 359.338C1912.51 368.936 1919.87 379.173 1927.04 389.271C1921.56 396.261 1915.52 403.408 1909.3 411.306C1901.4 399.893 1893.83 388.828 1885.71 377.661Z" fill="#1A1A1A"/>
<path fill-rule="evenodd" clip-rule="evenodd" d="M1908.31 356.648C1913.97 351.701 1919.39 346.679 1924.47 342.015C1930.83 350.422 1937.42 358.588 1944.1 367.3C1939.45 373.033 1934.71 379.084 1929.65 385.891C1922.53 376.089 1915.33 365.977 1908.31 356.648H1908.31Z" fill="#1A1A1A"/>
<path fill-rule="evenodd" clip-rule="evenodd" d="M1793.99 386.874C1805.15 379.02 1815.58 371.499 1825.24 364.606C1833.34 376.645 1841.36 388.64 1849.35 401.376C1839.97 410.044 1830.38 419.694 1819.41 429.064C1811 414.307 1802.26 400.532 1793.99 386.874Z" fill="#1A1A1A"/>
<path fill-rule="evenodd" clip-rule="evenodd" d="M1829.86 361.392C1839.11 356.044 1847.3 350.145 1855.27 344.653C1862.61 354.474 1870.2 364.772 1877.54 375.516C1870.07 382.505 1862.41 389.639 1853.82 397.822C1845.64 385.005 1837.99 372.93 1829.86 361.392Z" fill="#1A1A1A"/>
<path fill-rule="evenodd" clip-rule="evenodd" d="M1858.89 341.732C1866.56 336.799 1873.56 331.8 1880.29 327.6C1887.03 336.007 1894.21 345.539 1901.06 355.261C1894.79 360.761 1888.1 366.129 1880.89 372.291C1873.83 362.026 1866.29 351.825 1858.89 341.732Z" fill="#1A1A1A"/>
<path fill-rule="evenodd" clip-rule="evenodd" d="M1883.5 325.552C1889.92 321.751 1895.72 317.704 1901.47 314.398C1907.86 321.903 1913.99 329.707 1920.52 338.092C1915.39 342.56 1909.74 347.116 1904.07 352.179C1897.29 343.302 1890.26 333.898 1883.5 325.552Z" fill="#1A1A1A"/>
<path fill-rule="evenodd" clip-rule="evenodd" d="M1517.36 284.444C1540.25 279.632 1561.28 274.89 1581.09 270.378C1588.72 282.672 1596.51 294.412 1603.81 307.01C1584.59 312.35 1563.4 319.232 1539.92 326.241C1532.29 311.733 1524.88 298.008 1517.35 284.444H1517.36Z" fill="#1A1A1A"/>
<path fill-rule="evenodd" clip-rule="evenodd" d="M1649.35 270.561C1665.33 267.023 1679.39 263.535 1693.38 260.897C1700.25 270.176 1707.72 279.787 1715.17 289.864C1701.52 294.005 1687.19 298.451 1671.79 303.37C1664.61 292.319 1656.81 280.969 1649.35 270.558V270.561Z" fill="#1A1A1A"/>
<path fill-rule="evenodd" clip-rule="evenodd" d="M1668.15 198.34C1680.88 197.831 1692.79 197.061 1704.28 196.452C1710.74 203.5 1717.07 210.374 1723.15 217.516C1712.01 218.526 1700.17 219.811 1687.58 221.649C1681.3 213.599 1675.03 205.803 1668.15 198.34Z" fill="#1A1A1A"/>
<path fill-rule="evenodd" clip-rule="evenodd" d="M1715.11 368.288C1729.73 361.124 1743.22 354.469 1755.62 347.872C1763.61 359.983 1772.12 372.983 1779.8 386.395C1767.72 394.749 1754.73 403.323 1740.45 412.557C1732.2 397.089 1723.58 382.719 1715.11 368.288Z" fill="#1A1A1A"/>
<path fill-rule="evenodd" clip-rule="evenodd" d="M1762.41 346.034C1774.48 339.866 1785.49 334.474 1795.92 329.322C1803.12 339.531 1810.71 350.095 1818.34 360.838C1808.32 367.654 1797.35 375.167 1785.79 383.07C1777.87 369.738 1770.22 357.946 1762.41 346.031V346.034Z" fill="#1A1A1A"/>
<path fill-rule="evenodd" clip-rule="evenodd" d="M1802.36 325.566C1812 321.125 1821.11 316.796 1829.73 312.489C1836.61 321.294 1843.53 330.587 1850.45 340.135C1842.28 345.779 1833.74 351.172 1824.41 356.556C1817.19 346.347 1809.72 335.899 1802.36 325.568V325.566Z" fill="#1A1A1A"/>
<path fill-rule="evenodd" clip-rule="evenodd" d="M1834.72 309.967C1842.56 305.543 1850.06 302.279 1857.5 299.046C1863.98 307.279 1870.63 315.691 1877.46 324.193C1870.42 328.137 1863.06 332.716 1855.64 337.801C1848.77 328.392 1841.59 318.961 1834.72 309.967Z" fill="#1A1A1A"/>
<path fill-rule="evenodd" clip-rule="evenodd" d="M1860.76 298.141C1867.38 294.943 1873.91 291.937 1880.26 289.277C1885.89 296.369 1891.85 303.436 1897.73 310.506C1891.96 314.075 1885.84 317.917 1879.65 322.036C1873.27 313.942 1866.83 305.842 1860.76 298.141H1860.76Z" fill="#1A1A1A"/>
<path fill-rule="evenodd" clip-rule="evenodd" d="M1902.78 278.688C1908.03 276.784 1912.62 274.649 1917.18 272.548C1922.08 278.063 1927.18 283.854 1931.87 289.31C1927.74 291.976 1923.71 294.846 1918.77 297.374C1913.59 291.154 1908.24 284.87 1902.78 278.686V278.688Z" fill="#1A1A1A"/>
<path fill-rule="evenodd" clip-rule="evenodd" d="M1919.6 271.563C1924.03 269.47 1928.02 267.386 1931.96 265.844C1936.52 270.791 1940.75 275.607 1945.47 280.956C1941.87 283.295 1938.16 285.554 1934.33 288.142C1929.31 282.525 1924.59 276.997 1919.6 271.563Z" fill="#1A1A1A"/>
<path fill-rule="evenodd" clip-rule="evenodd" d="M1730.31 231.645C1740.97 230.183 1751.12 228.935 1760.97 227.396C1767.12 234.756 1773.31 241.854 1779.82 249.243C1770.43 251.219 1760.44 253.085 1749.79 255.709C1743.25 247.477 1736.7 239.551 1730.31 231.645H1730.31Z" fill="#1A1A1A"/>
<path fill-rule="evenodd" clip-rule="evenodd" d="M1736.03 162.179C1745.22 162.658 1753.94 163.079 1762.25 163.472C1767.37 168.543 1772.44 173.687 1777.67 178.597C1769.36 178.647 1761.04 178.531 1752.1 178.409C1746.91 172.917 1741.41 167.547 1736.03 162.179H1736.03Z" fill="#1A1A1A"/>
<path fill-rule="evenodd" clip-rule="evenodd" d="M1557.65 373.619C1581.03 364.08 1602.47 355.645 1622.87 347.847C1630.82 362.508 1639.33 378.262 1647.09 395.14C1627.06 405.587 1606.08 416.195 1582.62 427.545C1574.7 409.205 1566.13 391.034 1557.65 373.619H1557.65Z" fill="#1A1A1A"/>
<path fill-rule="evenodd" clip-rule="evenodd" d="M1690.01 321.643C1704.81 316.156 1718.89 311.276 1731.94 306.473C1739.55 317.327 1747.29 328.835 1754.83 340.47C1742.35 346.842 1728.61 353.314 1714.56 359.861C1706.38 347.044 1698.21 333.851 1690.02 321.646L1690.01 321.643Z" fill="#1A1A1A"/>
<path fill-rule="evenodd" clip-rule="evenodd" d="M1779.78 290.866C1790 287.414 1799.32 284.261 1808.2 281.014C1814.64 288.925 1821.38 297.521 1827.84 306.357C1819.39 310.432 1810.13 314.756 1800.78 319.224C1794.03 309.407 1786.75 299.788 1779.78 290.866H1779.78Z" fill="#1A1A1A"/>
<path fill-rule="evenodd" clip-rule="evenodd" d="M1813.28 279.444C1821.74 276.609 1829.67 274.104 1837.27 271.815C1843.64 279.314 1849.82 286.926 1856.18 294.498C1848.95 297.579 1841.59 300.674 1833.62 304.524C1826.71 295.682 1820.1 287.167 1813.28 279.444Z" fill="#1A1A1A"/>
<path fill-rule="evenodd" clip-rule="evenodd" d="M1840.55 270.982C1847.59 268.714 1854.43 266.483 1861.14 264.216C1866.73 270.827 1872.32 277.324 1878.03 284.064C1871.85 286.824 1865.33 289.922 1858.69 292.906C1852.47 285.429 1846.34 278.041 1840.55 270.979L1840.55 270.982Z" fill="#1A1A1A"/>
<path fill-rule="evenodd" clip-rule="evenodd" d="M1865.57 262.873C1871.58 261.066 1877.47 259.327 1882.85 257.597C1888.47 263.845 1893.8 269.658 1899.07 275.906C1894.02 277.891 1888.59 280.142 1882.65 282.976C1877.04 275.865 1871.13 269.202 1865.57 262.873Z" fill="#1A1A1A"/>
<path fill-rule="evenodd" clip-rule="evenodd" d="M1885.49 257.038C1890.95 255.535 1895.85 253.813 1900.77 252.401C1905.59 257.597 1910.51 263.183 1915.09 268.595C1910.65 270.536 1906.08 272.692 1900.77 274.489C1895.84 268.872 1890.61 262.79 1885.49 257.038H1885.49Z" fill="#1A1A1A"/>
<path fill-rule="evenodd" clip-rule="evenodd" d="M1903.39 251.56C1908.1 250.295 1912.54 249.198 1916.72 247.978C1921.14 252.786 1925.69 257.517 1929.88 262.226C1926.05 263.679 1921.85 265.393 1917.68 267.449C1913.02 261.999 1908.22 256.814 1903.39 251.56Z" fill="#1A1A1A"/>
<path fill-rule="evenodd" clip-rule="evenodd" d="M1918.65 247.374C1922.64 246.278 1926.46 245.115 1930.12 243.842C1934.2 248.229 1938.32 252.603 1942.17 256.869C1938.95 258.408 1935.4 259.936 1931.76 261.367C1927.4 256.761 1923.08 252.025 1918.65 247.374H1918.65Z" fill="#1A1A1A"/>
<path fill-rule="evenodd" clip-rule="evenodd" d="M1798.77 223.523C1806.76 222.709 1814.44 222.092 1821.81 221.286C1827.26 227.141 1832.82 233.137 1838.36 239.05C1831.25 240.24 1824.15 241.666 1816.18 243.277C1810.36 236.564 1804.61 229.887 1798.77 223.523Z" fill="#1A1A1A"/>
<path fill-rule="evenodd" clip-rule="evenodd" d="M1825.16 220.755C1832.1 219.883 1838.89 219.293 1844.99 218.482C1850.33 223.952 1855.61 229.547 1860.57 235.025C1854.54 236.193 1848.31 237.372 1841.58 238.446C1836.24 232.708 1830.61 226.59 1825.16 220.755Z" fill="#1A1A1A"/>
<path fill-rule="evenodd" clip-rule="evenodd" d="M1848.02 218.147C1854.36 217.538 1860.04 216.998 1865.55 216.469C1870.33 221.308 1875.34 226.496 1880.1 231.465C1874.8 232.462 1869.32 233.469 1863.55 234.69C1858.52 229.037 1853.23 223.457 1848.02 218.147Z" fill="#1A1A1A"/>
<path fill-rule="evenodd" clip-rule="evenodd" d="M1868.15 216.171C1873.55 215.656 1878.67 215.343 1883.56 214.892C1888.04 219.404 1892.81 224.395 1897.13 228.835C1892.47 229.619 1887.59 230.2 1882.59 230.986C1878.02 226.228 1872.93 221.04 1868.15 216.171H1868.15Z" fill="#1A1A1A"/>
<path fill-rule="evenodd" clip-rule="evenodd" d="M1885.96 214.717C1890.68 214.194 1895.09 213.555 1899.52 213.38C1903.68 217.513 1907.94 221.815 1912.15 226.261C1908.18 226.944 1903.96 227.728 1899.4 228.572C1895.01 223.899 1890.36 219.221 1885.96 214.717Z" fill="#1A1A1A"/>
<path fill-rule="evenodd" clip-rule="evenodd" d="M1901.57 213.308C1905.7 212.915 1909.5 212.553 1913.36 212.298C1917.42 216.215 1921.5 220.245 1925.03 223.988C1921.65 224.664 1918.02 225.361 1914.02 225.862C1909.95 221.524 1905.9 217.427 1901.57 213.308H1901.57Z" fill="#1A1A1A"/>
<path fill-rule="evenodd" clip-rule="evenodd" d="M1915.1 212.168C1918.8 211.791 1922.4 211.55 1925.63 211.202C1929.36 214.828 1933.03 218.568 1936.67 222.18C1933.62 222.892 1930.14 223.255 1926.86 223.736C1923.03 219.952 1919.24 216.085 1915.1 212.171V212.168Z" fill="#1A1A1A"/>
<path fill-rule="evenodd" clip-rule="evenodd" d="M1920.76 189.87C1915.12 189.382 1909.42 189.396 1903.21 189.114C1902.05 189.006 1900.73 188.909 1899.37 188.497C1905.85 189.114 1911.79 188.975 1917.52 189.319C1918.87 189.82 1919.9 189.64 1920.76 189.872V189.87Z" fill="#1A1A1A"/>
<path fill-rule="evenodd" clip-rule="evenodd" d="M1807.79 201.565C1814.98 201.109 1822.11 200.854 1828.55 200.439C1833.71 205.596 1838.81 210.842 1843.79 216.182C1837.42 216.821 1830.64 217.438 1823.88 218.222C1818.55 212.475 1813.03 206.772 1807.79 201.563L1807.79 201.565Z" fill="#1A1A1A"/>
<path fill-rule="evenodd" clip-rule="evenodd" d="M1831.68 200.259C1838.12 200.156 1844.22 200.026 1849.96 199.78C1854.61 204.547 1859.73 209.538 1864.23 214.296C1858.81 214.828 1852.92 215.24 1846.83 215.736C1841.9 210.54 1836.71 205.289 1831.68 200.261V200.259Z" fill="#1A1A1A"/>
<path fill-rule="evenodd" clip-rule="evenodd" d="M1852.72 199.758C1858.4 199.619 1863.74 199.628 1869 199.503C1873.47 203.752 1877.93 208.273 1882.26 212.929C1877.32 213.197 1872.2 213.554 1866.87 214.177C1862.43 209.441 1857.39 204.428 1852.72 199.755L1852.72 199.758Z" fill="#1A1A1A"/>
<path fill-rule="evenodd" clip-rule="evenodd" d="M1871.45 199.351C1876.47 199.248 1881.14 199.337 1885.68 199.19C1889.97 203.295 1894.14 207.387 1898.2 211.448C1893.92 211.636 1889.45 212.173 1884.67 212.691C1880.3 208.245 1875.84 203.653 1871.45 199.351Z" fill="#1A1A1A"/>
<path fill-rule="evenodd" clip-rule="evenodd" d="M1887.87 199.088C1892.36 199.174 1896.28 198.963 1900.38 199.002C1904.42 202.897 1908.35 206.645 1912.15 210.46C1908.37 210.8 1904.43 211.121 1900.25 211.381C1896.19 207.248 1892.07 203.34 1887.87 199.088Z" fill="#1A1A1A"/>
<path fill-rule="evenodd" clip-rule="evenodd" d="M1902.25 198.864C1906.27 198.819 1909.9 198.805 1913.53 198.675C1917.26 202.263 1920.86 205.809 1924.48 209.427C1921.23 210.053 1917.71 210.211 1914.03 210.465C1910.08 206.548 1906.37 202.764 1902.25 198.864H1902.25Z" fill="#1A1A1A"/>
<path fill-rule="evenodd" clip-rule="evenodd" d="M1915.23 198.717C1918.62 198.717 1922.06 198.869 1925 198.789C1928.4 201.964 1931.89 205.363 1935.33 208.619C1932.37 208.793 1929.33 209.04 1926.11 209.419C1922.64 205.823 1918.88 202.299 1915.23 198.717Z" fill="#1A1A1A"/>
<path fill-rule="evenodd" clip-rule="evenodd" d="M1789.78 182.437C1797.34 182.517 1804.64 182.625 1811.45 182.794C1816.43 187.771 1821.39 192.557 1826.29 197.493C1819.58 197.717 1812.53 198.052 1805.45 198.357C1800.14 193.003 1794.81 187.575 1789.78 182.44V182.437Z" fill="#1A1A1A"/>
<path fill-rule="evenodd" clip-rule="evenodd" d="M1814.64 183.018C1821.29 183.04 1827.73 183.331 1833.73 183.527C1838.44 188.098 1843.18 192.668 1847.75 197.208C1841.92 197.15 1835.67 197.244 1829.38 197.535C1824.57 192.485 1819.65 187.755 1814.64 183.018Z" fill="#1A1A1A"/>
<path fill-rule="evenodd" clip-rule="evenodd" d="M1836.76 183.577C1842.66 183.694 1848.37 183.926 1853.77 184.167C1858.07 188.294 1862.45 192.552 1866.83 197.028C1861.66 197.064 1856.24 197.167 1850.65 197.252C1846.09 192.646 1841.35 187.99 1836.76 183.577H1836.76Z" fill="#1A1A1A"/>
<path fill-rule="evenodd" clip-rule="evenodd" d="M1856.24 184.195C1861.61 184.499 1866.25 184.593 1871.14 184.87C1875.49 188.903 1879.44 192.776 1883.62 196.807C1878.95 196.829 1874.2 196.779 1869.12 196.879C1865.01 192.593 1860.63 188.336 1856.24 184.195Z" fill="#1A1A1A"/>
<path fill-rule="evenodd" clip-rule="evenodd" d="M1873.66 185.081C1878.12 185.166 1882.48 185.291 1886.83 185.546C1890.85 189.418 1894.7 193.095 1898.44 196.713C1894.55 196.909 1890.36 196.937 1885.8 196.837C1881.76 192.79 1877.73 188.998 1873.66 185.081Z" fill="#1A1A1A"/>
<path fill-rule="evenodd" clip-rule="evenodd" d="M1888.96 185.612C1893.21 185.903 1896.95 186.063 1900.54 186.207C1904.34 189.701 1908.22 193.225 1911.7 196.641C1908.15 196.699 1904.44 196.815 1900.37 196.713C1896.63 193.108 1892.85 189.441 1888.96 185.612Z" fill="#1A1A1A"/>
<path fill-rule="evenodd" clip-rule="evenodd" d="M1902.77 186.628C1906.55 186.941 1909.9 187.115 1913.31 187.317C1916.78 190.6 1920.42 193.986 1923.77 197.374C1920.57 197.128 1917.19 197.084 1913.67 196.94C1910.18 193.662 1906.7 190.387 1902.77 186.631V186.628Z" fill="#1A1A1A"/>
<path fill-rule="evenodd" clip-rule="evenodd" d="M1798.61 167.054C1805.53 167.447 1812.08 167.715 1818.41 168.23C1823.11 172.698 1827.64 177.022 1832.22 181.678C1825.97 181.258 1819.72 181.213 1812.95 181.017C1808.35 176.352 1803.54 171.696 1798.61 167.054H1798.61Z" fill="#1A1A1A"/>
<path fill-rule="evenodd" clip-rule="evenodd" d="M1821.58 168.676C1827.78 168.958 1833.48 169.49 1839.23 170.093C1843.59 174.105 1847.82 178.193 1852.16 182.357C1846.57 181.892 1841.14 181.878 1835.1 181.689C1830.55 177.249 1825.98 172.731 1821.58 168.676Z" fill="#1A1A1A"/>
<path fill-rule="evenodd" clip-rule="evenodd" d="M1841.88 170.317C1847.34 170.738 1852.4 171.275 1857.52 171.829C1861.67 175.577 1865.67 179.48 1869.84 183.395C1864.9 182.893 1860.05 182.791 1854.63 182.392C1850.56 178.47 1846.24 174.423 1841.88 170.317Z" fill="#1A1A1A"/>
<path fill-rule="evenodd" clip-rule="evenodd" d="M1860.01 172.009C1864.84 172.438 1869.39 172.698 1873.9 173.127C1877.79 176.759 1881.58 180.349 1885.44 184.031C1881.1 183.807 1876.82 183.616 1872.01 183.4C1867.9 179.536 1864.09 175.779 1860.01 172.009Z" fill="#1A1A1A"/>
<path fill-rule="evenodd" clip-rule="evenodd" d="M1876.14 173.398C1880.22 173.667 1884.27 174.052 1888.45 174.641C1892.12 177.983 1895.79 181.465 1899.35 184.798C1895.55 184.615 1891.62 184.239 1887.57 184.136C1883.63 180.452 1879.83 176.958 1876.14 173.398Z" fill="#1A1A1A"/>
<path fill-rule="evenodd" clip-rule="evenodd" d="M1900.92 177.241C1904.51 177.684 1907.94 178.091 1911.09 178.367C1914.33 181.338 1917.79 184.485 1921.12 187.611C1917.95 187.328 1914.69 187.253 1911.43 187.051C1908.12 183.81 1904.55 180.535 1900.92 177.243V177.241Z" fill="#1A1A1A"/>
<path fill-rule="evenodd" clip-rule="evenodd" d="M1913.03 178.534C1916.1 178.802 1919.03 178.999 1921.87 179.356C1924.85 182.218 1927.85 184.892 1930.71 187.688C1928.2 187.652 1925.33 187.447 1922.59 187.362C1919.53 184.513 1916.21 181.41 1913.03 178.534Z" fill="#1A1A1A"/>
<path fill-rule="evenodd" clip-rule="evenodd" d="M1806.1 154.384C1812.32 155.117 1818.33 155.823 1824.38 156.543C1828.67 160.523 1832.85 164.382 1837.25 168.43C1831.32 167.66 1825.74 167.325 1819.39 166.641C1815.05 162.45 1810.54 158.503 1806.1 154.384Z" fill="#1A1A1A"/>
<path fill-rule="evenodd" clip-rule="evenodd" d="M1827.16 156.833C1832.7 157.437 1838.27 158.22 1843.57 158.882C1847.49 162.58 1851.58 166.315 1855.68 170.143C1850.5 169.57 1845.49 169.169 1839.9 168.704C1835.5 164.593 1831.31 160.77 1827.16 156.831V156.833Z" fill="#1A1A1A"/>
<path fill-rule="evenodd" clip-rule="evenodd" d="M1846.1 159.178C1851.02 159.737 1855.85 160.399 1860.8 161.141C1864.57 164.673 1868.17 167.906 1872.11 171.525C1867.6 171.095 1863 170.733 1858.16 170.412C1854.14 166.561 1849.98 162.738 1846.1 159.178Z" fill="#1A1A1A"/>
<path fill-rule="evenodd" clip-rule="evenodd" d="M1862.95 161.476C1867.32 162.143 1871.69 162.719 1875.84 163.278C1879.44 166.578 1883.21 169.888 1886.79 173.138C1882.68 172.718 1878.63 172.275 1874.36 171.793C1870.41 168.225 1866.67 164.848 1862.95 161.476Z" fill="#1A1A1A"/>
<path fill-rule="evenodd" clip-rule="evenodd" d="M1889.21 166.118C1892.97 166.722 1896.45 167.137 1899.72 167.558C1903.09 170.644 1906.5 173.684 1909.71 176.792C1906.49 176.458 1903.2 176.125 1899.55 175.66C1896.15 172.507 1892.76 169.412 1889.21 166.121V166.118Z" fill="#1A1A1A"/>
<path fill-rule="evenodd" clip-rule="evenodd" d="M1902.14 168.485C1905.47 168.928 1908.43 169.393 1911.46 169.952C1914.6 172.748 1917.69 175.516 1920.99 178.495C1918.15 178.124 1915.08 177.891 1912.02 177.637C1908.8 174.57 1905.54 171.533 1902.14 168.482L1902.14 168.485Z" fill="#1A1A1A"/>
<path fill-rule="evenodd" clip-rule="evenodd" d="M1792.74 139.676C1799.3 140.703 1805.5 141.619 1811.46 142.646C1815.74 146.201 1819.8 149.855 1824.19 153.858C1818.19 152.941 1812.12 152.288 1805.93 151.488C1801.51 147.413 1797.15 143.546 1792.74 139.673L1792.74 139.676Z" fill="#1A1A1A"/>
<path fill-rule="evenodd" clip-rule="evenodd" d="M1814.29 142.942C1820.16 143.95 1825.76 144.736 1831.25 145.686C1835.06 149.21 1839.05 152.609 1843.09 156.302C1837.76 155.532 1832.26 154.857 1826.69 154.013C1822.61 150.314 1818.54 146.71 1814.29 142.942Z" fill="#1A1A1A"/>
<path fill-rule="evenodd" clip-rule="evenodd" d="M1799.09 129.846C1805.06 130.895 1810.78 132.047 1816.37 133.088C1820.39 136.639 1824.33 140.047 1828.26 143.466C1822.99 142.563 1817.26 141.691 1811.25 140.673C1807.28 137.149 1803.14 133.506 1799.09 129.846H1799.09Z" fill="#1A1A1A"/>
<path fill-rule="evenodd" clip-rule="evenodd" d="M1734.19 133.575C1742.77 134.757 1750.76 135.856 1758.37 136.645C1763.43 140.994 1768.06 145.456 1772.54 149.642C1765.16 149.024 1757.3 148.138 1748.97 147.244C1744.23 142.729 1739.29 138.153 1734.19 133.577L1734.19 133.575Z" fill="#1A1A1A"/>
<path fill-rule="evenodd" clip-rule="evenodd" d="M1917.39 227.7C1921.25 227.105 1924.8 226.435 1928.18 225.724C1932.4 230.003 1936.36 234.114 1940.06 238.009C1936.95 238.895 1933.59 239.999 1930.14 241.038C1925.81 236.467 1921.8 232.268 1917.39 227.697V227.7Z" fill="#1A1A1A"/>
<path fill-rule="evenodd" clip-rule="evenodd" d="M1903.22 230.67C1907.61 229.923 1911.68 229.079 1915.66 228.273C1919.91 232.785 1924.15 237.129 1928.4 241.619C1924.76 242.804 1920.86 243.958 1916.88 245.121C1912.37 240.215 1907.67 235.299 1903.22 230.67Z" fill="#1A1A1A"/>
<path fill-rule="evenodd" clip-rule="evenodd" d="M1885.29 233.264C1890.33 232.262 1895.15 231.512 1899.64 230.859C1904.24 235.438 1908.91 240.448 1913.49 245.34C1909.25 246.35 1904.66 247.438 1900.09 248.944C1895.06 243.429 1890.27 238.308 1885.28 233.264H1885.29Z" fill="#1A1A1A"/>
<path fill-rule="evenodd" clip-rule="evenodd" d="M1866.85 236.52C1872.53 235.415 1878.12 234.167 1883.02 233.201C1888.05 238.469 1893.14 243.662 1897.95 249.046C1893.1 250.522 1887.98 252.133 1882.39 253.45C1877.27 247.767 1872.1 242.253 1866.85 236.523V236.52Z" fill="#1A1A1A"/>
<path fill-rule="evenodd" clip-rule="evenodd" d="M1844.93 240.423C1851.51 239.282 1858.03 238.294 1863.66 236.675C1868.97 242.51 1874.39 248.396 1879.42 254.126C1873.83 255.74 1867.96 257.381 1861.74 258.942C1856.05 252.578 1850.61 246.555 1844.93 240.423H1844.93Z" fill="#1A1A1A"/>
<path fill-rule="evenodd" clip-rule="evenodd" d="M1820.1 245.661C1827.83 244.069 1834.93 242.646 1841.61 241.135C1847.34 247.418 1853.14 253.697 1858.79 260.244C1851.83 262.168 1845.4 264.568 1838.02 266.447C1831.93 259.457 1825.91 252.498 1820.1 245.661Z" fill="#1A1A1A"/>
<path fill-rule="evenodd" clip-rule="evenodd" d="M1791.4 252.213C1800.44 250.447 1808.45 248.777 1816.52 247.025C1822.55 253.926 1828.56 260.952 1834.58 267.82C1827.04 270.306 1819.06 272.739 1810.68 275.231C1804.05 267.172 1797.75 259.596 1791.4 252.213Z" fill="#1A1A1A"/>
<path fill-rule="evenodd" clip-rule="evenodd" d="M1492.68 212.32C1498.37 207.786 1503.94 203.21 1509.03 199.032C1517.25 203.675 1525.44 207.999 1533.71 212.901C1529.09 217.704 1524.53 222.74 1519 227.891C1510.09 222.637 1501.18 217.414 1492.69 212.32H1492.68Z" fill="#1A1A1A"/>
<path fill-rule="evenodd" clip-rule="evenodd" d="M1771.73 203.013C1773.99 200.74 1776.2 198.625 1778.5 196.815C1781.7 199.052 1785.04 201.435 1788.33 203.702C1786.29 205.853 1784.35 208.165 1782.28 210.764C1778.73 208.12 1775.2 205.496 1771.72 203.013H1771.73Z" fill="#1A1A1A"/>
<path fill-rule="evenodd" clip-rule="evenodd" d="M1861.29 119.05C1862.17 117.71 1862.98 116.315 1863.72 114.917C1866.6 117.295 1869.68 119.869 1872.7 122.377C1872.23 123.985 1871.57 125.455 1870.81 127.031C1867.65 124.381 1864.44 121.688 1861.29 119.05H1861.29Z" fill="#1A1A1A"/>
<path fill-rule="evenodd" clip-rule="evenodd" d="M1393.43 351.482C1400.54 345.931 1407.24 340.614 1413.76 335.933C1422.24 338.535 1430.56 341.616 1439.29 344.556C1432.96 349.671 1426.73 355.2 1420.32 361.157C1411.22 357.741 1401.9 354.663 1393.43 351.479L1393.43 351.482Z" fill="#1A1A1A"/>
<path fill-rule="evenodd" clip-rule="evenodd" d="M1840.99 137.054C1841.69 136.287 1842.24 135.54 1842.79 134.82C1844.67 136.177 1846.55 137.508 1848.37 138.837C1847.95 139.659 1847.51 140.625 1847.03 141.434C1845.01 139.98 1843.07 138.538 1840.99 137.052V137.054Z" fill="#1A1A1A"/>
<path fill-rule="evenodd" clip-rule="evenodd" d="M1776.45 101.973C1778.14 101.256 1779.74 100.622 1781.33 100.038C1783.71 101.657 1786.1 103.332 1788.54 105.098C1787.21 105.898 1785.75 106.609 1784.08 107.528C1781.6 105.593 1779.02 103.786 1776.45 101.975V101.973Z" fill="#1A1A1A"/>
<path fill-rule="evenodd" clip-rule="evenodd" d="M1417.23 167.665C1423.92 164.919 1430.14 162.522 1436.06 160.263C1443.71 163.425 1450.95 166.453 1457.88 169.664C1452.53 172.324 1446.91 175.048 1440.61 178.398C1432.53 174.641 1424.67 170.915 1417.23 167.665Z" fill="#1A1A1A"/>
<path fill-rule="evenodd" clip-rule="evenodd" d="M1803.83 97.693C1804.85 97.2141 1805.62 96.5857 1806.42 96.1123C1808.37 97.3802 1810.22 98.8113 1812.1 100.193C1811.41 100.799 1810.78 101.516 1809.95 102.07C1808.08 100.649 1805.96 99.1463 1803.83 97.693Z" fill="#1A1A1A"/>
<path fill-rule="evenodd" clip-rule="evenodd" d="M1846.39 87.2345C1846.93 86.8414 1847.52 86.5396 1848.06 86.177C1849.46 87.2594 1850.99 88.3778 1852.34 89.4103C1851.87 89.8311 1851.47 90.2574 1851.05 90.7446C1849.52 89.5902 1847.92 88.4137 1846.39 87.2345Z" fill="#1A1A1A"/>
<path fill-rule="evenodd" clip-rule="evenodd" d="M1388.29 257.78C1393.05 255.507 1396.91 253.362 1400.98 251.308C1406.95 252.993 1412.68 254.519 1418.38 256.169C1414.88 258.275 1410.92 260.731 1406.73 263.056C1400.48 261.362 1394.36 259.518 1388.29 257.78Z" fill="#1A1A1A"/>
<path fill-rule="evenodd" clip-rule="evenodd" d="M1739.02 90.9771C1740.69 90.4844 1742.4 90.1466 1743.85 89.6428C1746.18 91.157 1748.63 92.7294 1750.84 94.1883C1749.43 94.8028 1748.12 95.326 1746.57 95.9018C1744.26 94.3156 1741.55 92.5661 1739.02 90.9771Z" fill="#1A1A1A"/>
<path fill-rule="evenodd" clip-rule="evenodd" d="M1800.65 53.545C1801.71 53.3484 1802.77 53.1795 1803.81 53.127C1805.56 54.2342 1807.23 55.4993 1808.9 56.7118C1807.91 56.8834 1806.91 57.0717 1805.91 57.2904C1804.12 55.9838 1802.39 54.7408 1800.65 53.545Z" fill="#1A1A1A"/>
<path fill-rule="evenodd" clip-rule="evenodd" d="M1827.08 99.4008C1828.05 99.0963 1829 98.8804 1829.89 98.6091C1831.39 99.6832 1833.08 100.862 1834.65 101.925C1833.76 102.241 1832.93 102.534 1832.03 102.856C1830.34 101.682 1828.77 100.577 1827.08 99.4008H1827.08Z" fill="#1A1A1A"/>
<path fill-rule="evenodd" clip-rule="evenodd" d="M1849.81 124.099C1850.77 123.783 1851.68 123.421 1852.56 123.188C1853.97 124.143 1855.52 125.168 1857.01 126.12C1856.12 126.435 1855.22 126.768 1854.39 127.144C1852.91 126.139 1851.36 125.129 1849.81 124.099Z" fill="#1A1A1A"/>
<path fill-rule="evenodd" clip-rule="evenodd" d="M1699.78 137.309C1701.87 136.764 1703.88 136.207 1705.8 135.692C1708.34 137.057 1710.82 138.355 1713.49 139.784C1711.51 140.235 1709.57 140.852 1707.62 141.425C1705.1 140.019 1702.33 138.624 1699.78 137.309Z" fill="#1A1A1A"/>
<path fill-rule="evenodd" clip-rule="evenodd" d="M1873.16 145.716C1874.05 145.403 1874.96 144.991 1875.78 144.661C1877.16 145.583 1878.41 146.428 1879.73 147.327C1878.98 147.676 1878.22 148.069 1877.39 148.49C1876.01 147.532 1874.61 146.696 1873.16 145.713V145.716Z" fill="#1A1A1A"/>
<path fill-rule="evenodd" clip-rule="evenodd" d="M1861.8 109.073C1862.59 108.871 1863.35 108.793 1864.13 108.649C1865.27 109.425 1866.47 110.291 1867.62 111.019C1866.97 111.157 1866.19 111.357 1865.54 111.578C1864.28 110.706 1863.08 109.865 1861.8 109.076V109.073Z" fill="#1A1A1A"/>
<path fill-rule="evenodd" clip-rule="evenodd" d="M1287 308.785C1293.36 306.875 1300.09 304.607 1306.88 302.639C1313.18 303.985 1319.98 304.942 1326.37 306.119C1320.26 307.985 1313.64 310.172 1307.53 312.339C1300.38 311.14 1293.78 310.036 1287 308.787V308.785Z" fill="#1A1A1A"/>
<path fill-rule="evenodd" clip-rule="evenodd" d="M1775.8 64.9585C1777.2 65.0139 1778.46 65.0277 1779.73 65.0388C1781.21 65.9772 1782.75 66.9572 1784.34 68.0063C1783.09 67.9482 1781.94 68.0534 1780.67 68.0423C1779.07 66.9959 1777.48 65.9385 1775.8 64.9585H1775.8Z" fill="#1A1A1A"/>
<path fill-rule="evenodd" clip-rule="evenodd" d="M1601.12 185.496C1604.29 184.726 1607.68 184.267 1610.91 183.569C1614.09 184.674 1616.99 185.64 1619.84 186.775C1616.9 187.312 1613.73 188.067 1610.42 188.823C1607.32 187.683 1604.14 186.586 1601.13 185.496H1601.12Z" fill="#1A1A1A"/>
<path fill-rule="evenodd" clip-rule="evenodd" d="M1611.93 242.848C1614.79 241.068 1617.61 239.296 1620.46 237.754C1624.44 239.28 1628.5 241.074 1632.58 242.804C1629.94 244.561 1627.31 246.275 1624.65 248.274C1620.22 246.269 1616.03 244.589 1611.93 242.845V242.848Z" fill="#1A1A1A"/>
<path fill-rule="evenodd" clip-rule="evenodd" d="M1681.11 172.026C1683.68 170.558 1686.06 169.249 1688.26 167.973C1691.65 169.847 1695.18 171.837 1698.71 173.864C1696.49 175.223 1694.51 176.856 1692.04 178.26C1688.29 176.159 1684.7 174.069 1681.11 172.026Z" fill="#1A1A1A"/>
</g>
<g clip-path="url(#clip2_4461_358)">
<path fill-rule="evenodd" clip-rule="evenodd" d="M118.534 63.6612C118.95 63.0661 119.551 63.2825 119.176 60.7074C117.777 56.4897 119.559 61.4994 119.394 60.7831C119.187 62.0274 118.423 61.4215 117.956 61.3544C118.099 61.9127 118.293 62.813 118.534 63.6612Z" fill="#1A1A1A"/>
<path fill-rule="evenodd" clip-rule="evenodd" d="M29.6828 321.733C26.4472 316.356 23.8078 310.442 21.2185 305.166C19.8411 307.291 15.894 330.543 10.4412 367H22.239C25.8119 340.238 28.4687 323.642 29.6828 321.733Z" fill="#1A1A1A"/>
<path fill-rule="evenodd" clip-rule="evenodd" d="M19.58 306.308C16.9646 301.316 14.5341 296.562 12.0753 292.95C10.7371 294.887 5.96097 323.387 -0.605957 367H10.0582C14.83 331.201 18.2984 308.358 19.58 306.308Z" fill="#1A1A1A"/>
<path fill-rule="evenodd" clip-rule="evenodd" d="M10.898 291.5C8.69378 288.36 6.58967 285.378 4.51167 282.543C2.0507 296.772 -0.440722 310.812 -2.83206 324.765C-5.26473 338.935 -7.66477 353.034 -10.0017 366.97L-9.84504 366.998H-0.257945C3.31491 342.201 7.10972 316.949 10.898 291.498V291.5Z" fill="#1A1A1A"/>
<path fill-rule="evenodd" clip-rule="evenodd" d="M3.64789 281.068C1.80706 278.131 0.0510921 275.519 -1.62001 273.059C-4.78815 288.678 -7.95194 304.127 -10.9982 319.279C-14.0728 334.585 -17.0908 349.716 -20 364.553V365.161C-17.2366 365.682 -14.397 366.199 -11.4813 366.671C-9.103 352.625 -6.58764 338.357 -4.05051 323.967C-1.55691 309.818 1.09771 295.534 3.64789 281.068Z" fill="#1A1A1A"/>
<path fill-rule="evenodd" clip-rule="evenodd" d="M120.499 367C114.226 360.906 108.264 355.236 102.606 349.45C99.1249 355.169 95.4846 361.071 91.853 367H120.499Z" fill="#1A1A1A"/>
<path fill-rule="evenodd" clip-rule="evenodd" d="M99.3774 346.526C92.9019 339.723 86.8942 334.083 81.2411 328.875C74.8548 337.673 68.9363 346.215 62.6914 355.682C65.4831 359.101 68.3336 362.94 71.3168 367.002H86.5743C90.8739 359.976 95.1387 353.183 99.3774 346.526Z" fill="#1A1A1A"/>
<path fill-rule="evenodd" clip-rule="evenodd" d="M78.5931 326.085C72.9923 321.086 68.0595 316.334 63.2703 311.762C57.6717 319.264 51.9272 327.267 46.3264 335.161C50.6021 340.625 55.3217 346.213 60.1761 352.386C66.347 343.464 72.2568 334.815 78.5931 326.085Z" fill="#1A1A1A"/>
<path fill-rule="evenodd" clip-rule="evenodd" d="M60.9507 309.658C56.5336 305.791 52.2993 301.866 48.3347 298.219C43.3715 304.792 38.2232 311.175 33.0076 317.985C36.6392 322.467 40.3426 327.198 44.2897 332.519C49.8492 324.856 55.4696 316.951 60.9529 309.658H60.9507Z" fill="#1A1A1A"/>
<path fill-rule="evenodd" clip-rule="evenodd" d="M34.5742 284.805C31.5344 281.795 28.5425 279.109 25.6529 276.512C21.5557 281.362 17.0798 286.696 12.9956 291.853C15.3108 294.965 17.998 298.289 20.6766 302.076C25.3287 295.986 29.872 290.676 34.5742 284.805Z" fill="#1A1A1A"/>
<path fill-rule="evenodd" clip-rule="evenodd" d="M23.9731 275.621C21.3903 273.093 18.777 270.799 16.5053 268.237C12.8411 272.559 8.99842 277.012 5.42773 281.334C7.37518 284.253 9.54675 287.179 11.8141 290.297C15.7764 285.441 19.9999 280.375 23.9731 275.621Z" fill="#1A1A1A"/>
<path fill-rule="evenodd" clip-rule="evenodd" d="M14.8604 266.761C12.7607 264.439 10.748 262.325 8.82009 260.224C5.47135 264.035 2.01817 268.062 -1.15649 271.816C0.381881 274.225 2.19877 276.666 4.1027 279.354C7.67121 275.078 11.4464 270.795 14.8626 266.761H14.8604Z" fill="#1A1A1A"/>
<path fill-rule="evenodd" clip-rule="evenodd" d="M7.60802 259.053C5.77372 257.253 4.14179 255.379 2.39887 253.641C-0.501626 256.907 -3.56097 260.252 -6.46582 263.518C-5.24295 265.87 -3.81338 268.181 -2.49912 270.667C0.869202 266.885 4.38331 262.875 7.60802 259.053Z" fill="#1A1A1A"/>
<path fill-rule="evenodd" clip-rule="evenodd" d="M1.72226 252.732C0.188239 251.079 -1.2087 249.159 -2.41198 247.45C-5.1123 250.362 -7.6516 253.232 -10.5369 256.333C-9.35099 258.423 -8.15206 260.399 -6.8835 262.546C-4.04828 259.382 -1.11731 256.099 1.72444 252.732H1.72226Z" fill="#1A1A1A"/>
<path fill-rule="evenodd" clip-rule="evenodd" d="M6.45044 191.238C8.22599 190.283 9.89275 189.385 11.7205 188.654C11.7183 188.916 11.7727 189.074 11.9381 189.056C9.99719 189.965 7.94095 191.168 6.32642 192.032C6.33294 191.679 6.33294 191.577 6.45044 191.238Z" fill="#1A1A1A"/>
<path fill-rule="evenodd" clip-rule="evenodd" d="M184.989 356.92C174.029 349.543 164.54 342.556 154.637 336.133C148.732 346.152 142.593 356.057 136.394 367.002H179.595C181.377 363.605 183.174 360.244 184.989 356.92Z" fill="#1A1A1A"/>
<path fill-rule="evenodd" clip-rule="evenodd" d="M150.198 333.287C141.488 327.148 133.341 321.268 125.802 315.88C119.478 325.291 113.216 334.668 106.98 344.624C114.3 351.4 121.791 358.943 130.354 366.269C136.918 354.732 143.742 343.964 150.198 333.287Z" fill="#1A1A1A"/>
<path fill-rule="evenodd" clip-rule="evenodd" d="M122.194 313.367C114.97 309.187 108.577 304.575 102.361 300.282C96.625 307.96 90.6999 316.01 84.9729 324.408C90.8044 329.872 96.786 335.449 103.49 341.846C109.878 331.826 115.849 322.387 122.194 313.367Z" fill="#1A1A1A"/>
<path fill-rule="evenodd" clip-rule="evenodd" d="M99.5299 297.999C93.5417 294.142 88.0823 290.234 82.8231 286.951C77.5596 293.523 71.9588 300.974 66.6125 308.574C71.5084 312.874 76.7262 317.07 82.3575 321.887C87.8691 313.863 93.755 305.889 99.5299 297.999Z" fill="#1A1A1A"/>
<path fill-rule="evenodd" clip-rule="evenodd" d="M80.3163 285.35C75.3074 282.379 70.7815 279.215 66.2925 276.631C61.301 282.498 56.5161 288.598 51.418 295.153C55.426 298.646 59.8366 302.208 64.2624 306.166C69.5543 299.226 75.0397 291.875 80.3163 285.35Z" fill="#1A1A1A"/>
<path fill-rule="evenodd" clip-rule="evenodd" d="M20.6178 185.308C19.4537 185.189 18.4006 185.064 17.4606 184.882C15.5327 186.78 13.7637 188.55 11.875 190.35C12.8172 190.48 13.7049 190.788 14.7059 191.021C16.6511 189.186 18.529 187.278 20.6178 185.308Z" fill="#1A1A1A"/>
<path fill-rule="evenodd" clip-rule="evenodd" d="M50.5954 266.045C47.0508 263.927 43.8414 261.682 40.5427 259.622C36.4563 264.478 32.2481 269.358 28.1182 274.32C31.0622 276.69 34.115 279.313 37.4006 281.948C41.7503 276.599 46.113 271.366 50.5954 266.045Z" fill="#1A1A1A"/>
<path fill-rule="evenodd" clip-rule="evenodd" d="M38.702 258.962C35.7623 256.9 32.7965 255.043 29.9765 253.146C26.4668 257.19 22.796 261.421 19.2732 265.692C21.6711 268.084 24.2191 270.349 26.8693 272.814C30.762 268.315 34.7266 263.63 38.702 258.962Z" fill="#1A1A1A"/>
<path fill-rule="evenodd" clip-rule="evenodd" d="M28.2205 252.022C25.5724 250.415 23.44 248.534 21.0857 247.002C17.7413 250.733 14.3664 254.424 11.2026 258.105C13.1305 260.122 15.2694 262.092 17.5628 264.301C21.2075 259.86 24.7651 255.866 28.2183 252.022H28.2205Z" fill="#1A1A1A"/>
<path fill-rule="evenodd" clip-rule="evenodd" d="M19.7541 245.978C17.5477 244.433 15.5436 242.866 13.4374 241.657C10.5151 244.821 7.44488 248.114 4.33984 251.817C6.01965 253.561 7.77997 255.264 9.74482 257.246C12.9717 253.593 16.4097 249.625 19.7541 245.978Z" fill="#1A1A1A"/>
<path fill-rule="evenodd" clip-rule="evenodd" d="M12.6931 240.992C10.8479 239.527 9.07675 238.294 7.55796 236.874C4.88158 239.772 2.12033 242.776 -0.545166 245.597C0.845246 247.238 2.24654 249.051 3.90894 250.828C6.82249 247.419 9.76869 244.206 12.6931 240.99V240.992Z" fill="#1A1A1A"/>
<path fill-rule="evenodd" clip-rule="evenodd" d="M6.47217 235.903C4.85111 234.847 3.54338 233.438 2.24218 232.228C-0.310174 234.886 -2.88646 237.682 -5.42358 240.527C-4.06363 241.761 -3.00614 243.408 -1.75498 244.907C0.912692 241.949 3.79796 238.824 6.47217 235.905V235.903Z" fill="#1A1A1A"/>
<path fill-rule="evenodd" clip-rule="evenodd" d="M1.52855 231.847C0.116374 230.82 -0.806216 229.45 -1.96381 228.275C-4.14843 230.547 -6.40921 232.966 -8.50244 235.273C-7.47106 236.563 -6.55935 238.004 -5.51926 239.493C-3.17144 236.937 -0.84103 234.375 1.52855 231.847Z" fill="#1A1A1A"/>
<path fill-rule="evenodd" clip-rule="evenodd" d="M366.163 253.215C348.294 249.454 331.874 245.747 316.41 242.219C310.45 251.83 304.366 261.007 298.67 270.856C313.671 275.03 330.221 280.41 348.546 285.889C354.508 274.547 360.288 263.818 366.165 253.215H366.163Z" fill="#1A1A1A"/>
<path fill-rule="evenodd" clip-rule="evenodd" d="M263.113 242.362C250.639 239.597 239.663 236.87 228.74 234.808C223.383 242.061 217.549 249.575 211.733 257.452C222.391 260.689 233.577 264.164 245.599 268.01C251.2 259.371 257.297 250.499 263.113 242.36V242.362Z" fill="#1A1A1A"/>
<path fill-rule="evenodd" clip-rule="evenodd" d="M248.436 185.906C238.501 185.507 229.206 184.906 220.237 184.43C215.191 189.939 210.251 195.312 205.503 200.896C214.203 201.685 223.442 202.69 233.27 204.126C238.175 197.834 243.071 191.74 248.436 185.906Z" fill="#1A1A1A"/>
<path fill-rule="evenodd" clip-rule="evenodd" d="M301.225 367C288.489 360.246 276.571 353.858 265.348 347.701C262.141 354.005 258.927 360.434 255.75 367H301.222H301.225Z" fill="#1A1A1A"/>
<path fill-rule="evenodd" clip-rule="evenodd" d="M257.723 343.748C243.101 335.973 230.218 328.476 217.613 321.768C211 333.207 204.226 345.509 197.485 357.788C201.611 360.839 205.81 363.899 210.117 367H246.374C250.214 359.054 253.99 351.33 257.723 343.748Z" fill="#1A1A1A"/>
<path fill-rule="evenodd" clip-rule="evenodd" d="M211.781 318.758C200.368 313.157 189.833 307.955 180.154 302.798C173.918 312.266 167.275 322.428 161.276 332.913C170.704 339.444 180.846 346.145 191.998 353.365C198.441 341.272 205.166 330.039 211.781 318.758Z" fill="#1A1A1A"/>
<path fill-rule="evenodd" clip-rule="evenodd" d="M174.856 301.361C165.428 296.54 156.835 292.325 148.688 288.297C143.072 296.278 137.147 304.536 131.192 312.935C139.014 318.262 147.578 324.135 156.598 330.314C162.786 319.892 168.755 310.673 174.856 301.359V301.361Z" fill="#1A1A1A"/>
<path fill-rule="evenodd" clip-rule="evenodd" d="M143.664 285.361C136.135 281.89 129.027 278.505 122.294 275.138C116.922 282.022 111.526 289.286 106.123 296.75C112.496 301.162 119.165 305.378 126.446 309.587C132.088 301.606 137.922 293.439 143.664 285.363V285.361Z" fill="#1A1A1A"/>
<path fill-rule="evenodd" clip-rule="evenodd" d="M118.401 273.167C112.283 269.709 106.425 267.157 100.613 264.63C95.5564 271.066 90.3669 277.642 85.0337 284.288C90.5301 287.371 96.2767 290.951 102.069 294.926C107.435 287.57 113.04 280.198 118.401 273.167Z" fill="#1A1A1A"/>
<path fill-rule="evenodd" clip-rule="evenodd" d="M98.0697 263.922C92.9062 261.423 87.808 259.073 82.8448 256.993C78.4494 262.537 73.7995 268.062 69.2104 273.589C73.7168 276.378 78.4886 279.382 83.3278 282.602C88.3063 276.274 93.3327 269.943 98.0675 263.922H98.0697Z" fill="#1A1A1A"/>
<path fill-rule="evenodd" clip-rule="evenodd" d="M65.2676 248.716C61.166 247.227 57.5845 245.558 54.0268 243.916C50.1994 248.227 46.2196 252.754 42.5532 257.019C45.7845 259.103 48.9265 261.347 52.7822 263.323C56.8251 258.46 61.0028 253.548 65.2676 248.714V248.716Z" fill="#1A1A1A"/>
<path fill-rule="evenodd" clip-rule="evenodd" d="M52.1361 243.146C48.6807 241.51 45.5605 239.88 42.4902 238.675C38.9261 242.542 35.6274 246.307 31.9392 250.488C34.7505 252.317 37.6445 254.082 40.6364 256.106C44.5552 251.715 48.2368 247.394 52.1361 243.146Z" fill="#1A1A1A"/>
<path fill-rule="evenodd" clip-rule="evenodd" d="M40.9606 238.073C38.1601 236.755 35.6187 235.388 32.9815 234.245C29.6327 237.829 26.3057 241.345 23.3269 244.894C25.5006 246.496 28.0574 248.03 30.5771 249.677C34.1543 245.719 37.577 241.884 40.9584 238.073H40.9606Z" fill="#1A1A1A"/>
<path fill-rule="evenodd" clip-rule="evenodd" d="M31.0602 233.745C28.5056 232.598 26.2144 231.518 23.995 230.281C21.3403 233.148 18.1896 236.517 15.4937 239.601C17.4172 240.992 19.6018 242.377 21.8103 243.946C24.7957 240.482 28.003 237.069 31.0602 233.745Z" fill="#1A1A1A"/>
<path fill-rule="evenodd" clip-rule="evenodd" d="M22.7677 229.655C20.6353 228.707 18.5095 227.77 16.6382 226.816C14.0358 229.577 11.5335 232.308 8.94629 235.007C10.5848 236.245 12.4756 237.387 14.2599 238.915C17.0777 235.734 19.8128 232.696 22.7677 229.657V229.655Z" fill="#1A1A1A"/>
<path fill-rule="evenodd" clip-rule="evenodd" d="M16.0919 226.288C14.2314 225.403 12.6213 224.414 10.8435 223.613C8.59146 225.92 6.20666 228.458 3.80444 230.951C5.28842 232.064 6.72235 233.319 8.34341 234.598C10.8675 231.821 13.4895 229.106 16.0919 226.288Z" fill="#1A1A1A"/>
<path fill-rule="evenodd" clip-rule="evenodd" d="M10.0756 222.834C8.66123 221.789 7.25776 220.807 5.85864 220.069C3.55217 222.488 1.46546 224.687 -0.636475 226.928C0.462364 228.11 1.68741 229.207 2.9799 230.376C5.38212 227.796 7.76475 225.338 10.0756 222.832V222.834Z" fill="#1A1A1A"/>
<path fill-rule="evenodd" clip-rule="evenodd" d="M5.04479 219.541C3.77188 218.848 2.56424 218.121 1.53503 217.212C-0.418942 219.279 -2.2032 221.148 -4.30078 223.386C-3.3956 224.392 -2.48389 225.375 -1.45033 226.39C0.649434 224.208 2.73396 222.062 5.04479 219.541Z" fill="#1A1A1A"/>
<path fill-rule="evenodd" clip-rule="evenodd" d="M199.909 211.941C191.593 210.798 183.668 209.822 175.976 208.619C171.178 214.373 166.346 219.921 161.258 225.697C168.589 227.242 176.392 228.701 184.704 230.752C189.809 224.317 194.926 218.121 199.911 211.941H199.909Z" fill="#1A1A1A"/>
<path fill-rule="evenodd" clip-rule="evenodd" d="M45.5799 182.316C43.317 182.333 41.1715 182.337 39.1436 182.372C36.7674 184.752 34.3174 187.074 32.0261 189.385C34.0062 189.351 35.723 189.682 37.8902 189.76C40.3925 187.26 42.9362 184.767 45.5821 182.313L45.5799 182.316Z" fill="#1A1A1A"/>
<path fill-rule="evenodd" clip-rule="evenodd" d="M45.2231 174.921C43.1712 175.17 41.2259 175.358 39.3416 175.512C37.0351 177.676 34.8309 179.756 32.6724 181.798C34.4066 181.809 36.1974 181.788 38.0447 181.714C40.3599 179.511 42.8208 177.187 45.2231 174.921Z" fill="#1A1A1A"/>
<path fill-rule="evenodd" clip-rule="evenodd" d="M439.332 367C433.268 364.444 427.343 361.928 421.564 359.441C420.593 361.923 419.64 364.444 418.7 367H439.334H439.332Z" fill="#1A1A1A"/>
<path fill-rule="evenodd" clip-rule="evenodd" d="M195.446 157.637C188.275 158.012 181.464 158.341 174.978 158.648C170.978 162.612 167.02 166.633 162.938 170.472C169.427 170.511 175.92 170.42 182.904 170.325C186.956 166.031 191.245 161.833 195.444 157.637H195.446Z" fill="#1A1A1A"/>
<path fill-rule="evenodd" clip-rule="evenodd" d="M334.707 322.926C316.456 315.469 299.719 308.875 283.791 302.779C277.585 314.24 270.942 326.555 264.884 339.749C280.52 347.916 296.899 356.208 315.209 365.081C321.399 350.744 328.086 336.54 334.705 322.926H334.707Z" fill="#1A1A1A"/>
<path fill-rule="evenodd" clip-rule="evenodd" d="M231.371 282.295C219.823 278.005 208.83 274.19 198.638 270.436C192.703 278.921 186.653 287.917 180.77 297.012C190.511 301.993 201.241 307.053 212.205 312.171C218.594 302.151 224.969 291.838 231.369 282.297L231.371 282.295Z" fill="#1A1A1A"/>
<path fill-rule="evenodd" clip-rule="evenodd" d="M161.293 258.235C153.314 255.537 146.034 253.072 139.101 250.533C134.075 256.718 128.815 263.437 123.77 270.345C130.371 273.53 137.597 276.91 144.893 280.403C150.168 272.73 155.849 265.21 161.295 258.235H161.293Z" fill="#1A1A1A"/>
<path fill-rule="evenodd" clip-rule="evenodd" d="M135.141 249.307C128.533 247.091 122.342 245.132 116.408 243.343C111.439 249.205 106.615 255.156 101.645 261.074C107.289 263.483 113.04 265.902 119.261 268.912C124.651 262.001 129.814 255.344 135.141 249.307Z" fill="#1A1A1A"/>
<path fill-rule="evenodd" clip-rule="evenodd" d="M113.852 242.691C108.351 240.919 103.013 239.175 97.7759 237.402C93.4132 242.57 89.0483 247.649 84.5876 252.918C89.4117 255.076 94.5055 257.497 99.6885 259.83C104.541 253.985 109.332 248.209 113.849 242.689L113.852 242.691Z" fill="#1A1A1A"/>
<path fill-rule="evenodd" clip-rule="evenodd" d="M94.3162 236.353C89.6228 234.94 85.025 233.581 80.8255 232.228C76.4389 237.112 72.2742 241.657 68.166 246.541C72.1044 248.093 76.3431 249.852 80.9844 252.068C85.3623 246.509 89.9752 241.3 94.3162 236.353Z" fill="#1A1A1A"/>
<path fill-rule="evenodd" clip-rule="evenodd" d="M78.7672 231.791C74.5002 230.616 70.6771 229.27 66.8344 228.167C63.0701 232.228 59.2318 236.595 55.6545 240.826C59.1251 242.343 62.6936 244.029 66.8366 245.433C70.6836 241.042 74.7678 236.288 78.765 231.791H78.7672Z" fill="#1A1A1A"/>
<path fill-rule="evenodd" clip-rule="evenodd" d="M64.7891 227.508C61.1118 226.52 57.6499 225.663 54.3816 224.708C50.9328 228.467 47.3839 232.165 44.1091 235.846C47.101 236.982 50.3801 238.322 53.6353 239.93C57.2756 235.669 61.0226 231.616 64.7891 227.508Z" fill="#1A1A1A"/>
<path fill-rule="evenodd" clip-rule="evenodd" d="M52.8758 224.237C49.7599 223.38 46.7789 222.471 43.9262 221.475C40.7385 224.905 37.5203 228.324 34.5154 231.659C37.0264 232.862 39.7985 234.057 42.6446 235.176C46.0499 231.575 49.4161 227.872 52.878 224.237H52.8758Z" fill="#1A1A1A"/>
<path fill-rule="evenodd" clip-rule="evenodd" d="M41.9703 221.131C39.2112 220.296 36.7611 219.355 34.3937 218.61C31.4628 221.547 28.5775 224.557 25.7249 227.476C27.8246 228.777 30.2312 229.952 32.8358 231.003C35.906 227.64 38.8913 224.399 41.9724 221.131H41.9703Z" fill="#1A1A1A"/>
<path fill-rule="evenodd" clip-rule="evenodd" d="M32.653 218.467C30.3595 217.677 28.0792 217.013 25.8684 216.405C23.451 218.933 20.7833 221.694 18.3311 224.379C20.3177 225.197 22.2564 226.128 24.3845 227.037C27.0608 224.23 29.8373 221.408 32.653 218.465V218.467Z" fill="#1A1A1A"/>
<path fill-rule="evenodd" clip-rule="evenodd" d="M25.2657 215.944C23.3574 215.165 21.4644 214.444 19.5191 213.804C17.2083 216.195 14.7125 218.87 12.4321 221.285C14.1511 222.148 15.8179 223.068 17.613 223.955C20.124 221.298 22.7373 218.684 25.2679 215.946L25.2657 215.944Z" fill="#1A1A1A"/>
<path fill-rule="evenodd" clip-rule="evenodd" d="M18.6333 213.265C16.8774 212.611 15.302 212.034 13.6744 211.538C11.418 213.769 9.20725 215.95 7.04004 218.275C8.49355 218.974 9.89702 219.82 11.3658 220.746C13.7658 218.288 16.1484 215.743 18.6312 213.265H18.6333Z" fill="#1A1A1A"/>
<path fill-rule="evenodd" clip-rule="evenodd" d="M146.464 205.592C140.233 204.955 134.234 204.473 128.48 203.843C124.227 208.42 119.888 213.107 115.56 217.729C121.111 218.66 126.653 219.774 132.876 221.034C137.415 215.786 141.906 210.567 146.464 205.592Z" fill="#1A1A1A"/>
<path fill-rule="evenodd" clip-rule="evenodd" d="M125.867 203.428C120.443 202.746 115.142 202.285 110.381 201.651C106.212 205.927 102.089 210.3 98.2178 214.583C102.931 215.496 107.794 216.418 113.047 217.258C117.216 212.772 121.611 207.989 125.867 203.428Z" fill="#1A1A1A"/>
<path fill-rule="evenodd" clip-rule="evenodd" d="M108.018 201.389C103.07 200.913 98.6332 200.491 94.3292 200.078C90.6019 203.86 86.6918 207.916 82.9709 211.8C87.1095 212.579 91.3896 213.367 95.8959 214.321C99.8169 209.902 103.953 205.54 108.018 201.389Z" fill="#1A1A1A"/>
<path fill-rule="evenodd" clip-rule="evenodd" d="M92.2991 199.844C88.0865 199.442 84.0872 199.197 80.2684 198.844C76.7717 202.372 73.0531 206.273 69.6782 209.744C73.3142 210.357 77.1264 210.811 81.0322 211.426C84.5985 207.706 88.5739 203.65 92.3012 199.844H92.2991Z" fill="#1A1A1A"/>
<path fill-rule="evenodd" clip-rule="evenodd" d="M78.3995 198.708C74.7135 198.299 71.269 197.799 67.8115 197.663C64.5628 200.893 61.2359 204.256 57.9524 207.732C61.0509 208.266 64.3496 208.879 67.9072 209.539C71.3299 205.886 74.9594 202.229 78.3995 198.708Z" fill="#1A1A1A"/>
<path fill-rule="evenodd" clip-rule="evenodd" d="M66.21 197.606C62.9896 197.299 60.0195 197.015 57.0058 196.816C53.8355 199.878 50.65 203.029 47.8953 205.955C50.5368 206.483 53.3655 207.028 56.4901 207.42C59.6692 204.029 62.8329 200.826 66.2078 197.606H66.21Z" fill="#1A1A1A"/>
<path fill-rule="evenodd" clip-rule="evenodd" d="M55.6502 196.715C52.7628 196.42 49.9493 196.232 47.4296 195.959C44.5161 198.794 41.6482 201.718 38.813 204.542C41.1869 205.098 43.909 205.382 46.4657 205.758C49.4554 202.8 52.4168 199.777 55.6502 196.717V196.715Z" fill="#1A1A1A"/>
<path fill-rule="evenodd" clip-rule="evenodd" d="M45.9781 196.005C43.4171 195.778 41.0323 195.55 38.7715 195.341C36.2953 197.903 33.6864 200.48 31.0579 202.99C33.2185 203.354 35.5098 203.906 37.6922 204.393C40.4143 201.564 43.1233 198.879 45.9781 196.005Z" fill="#1A1A1A"/>
<path fill-rule="evenodd" clip-rule="evenodd" d="M37.3855 195.191C35.1965 195.038 33.2403 194.782 31.2363 194.685C28.8493 196.951 26.4515 199.307 24.0427 201.699C25.8923 202.04 27.633 202.454 29.6044 202.778C32.1763 200.262 34.8462 197.689 37.3855 195.189V195.191Z" fill="#1A1A1A"/>
<path fill-rule="evenodd" clip-rule="evenodd" d="M30.0874 194.481C28.203 194.254 26.5493 194.051 24.7912 193.897C22.5086 196.124 20.213 198.281 17.9631 200.599C19.508 200.974 21.1704 201.246 22.8959 201.683C25.2503 199.275 27.7047 196.849 30.0895 194.481H30.0874Z" fill="#1A1A1A"/>
<path fill-rule="evenodd" clip-rule="evenodd" d="M24.0514 193.856C22.463 193.594 21.1052 193.259 19.6952 192.993C17.6324 195.055 15.5044 197.145 13.5874 199.082C14.832 199.452 16.2507 199.809 17.5606 200.246C19.6974 198.111 21.9364 195.942 24.0514 193.856Z" fill="#1A1A1A"/>
<path fill-rule="evenodd" clip-rule="evenodd" d="M18.7967 192.811C17.5608 192.567 16.2161 192.493 15.0976 192.192C13.1437 194.118 11.1766 196.027 9.3728 197.866C10.3803 198.206 11.3921 198.576 12.5758 198.894C14.5471 196.964 16.6795 194.964 18.7989 192.811H18.7967Z" fill="#1A1A1A"/>
<path fill-rule="evenodd" clip-rule="evenodd" d="M4.74443 193.971C4.36364 193.646 4.04378 193.142 3.77179 192.783C2.47277 194.157 1.17375 195.367 0.0901402 196.583C0.0705569 197.18 0.279446 197.708 0.542732 198.219C1.96578 196.81 3.27351 195.464 4.74225 193.971H4.74443Z" fill="#1A1A1A"/>
<path fill-rule="evenodd" clip-rule="evenodd" d="M30.0789 182.753C33.1861 182.095 36.2389 181.435 39.7443 180.742C40.569 180.322 41.3458 180.13 42.338 179.76C38.6172 180.669 35.2314 181.389 31.9589 182.162C31.1929 182.679 30.6816 182.441 30.0789 182.753Z" fill="#1A1A1A"/>
<path fill-rule="evenodd" clip-rule="evenodd" d="M51.2332 179.284C55.6329 178.903 60.0848 178.914 64.9306 178.693C65.8401 178.609 66.8671 178.533 67.929 178.21C62.8678 178.693 58.2309 178.585 53.7572 178.853C52.7041 179.245 51.9012 179.104 51.2332 179.286V179.284Z" fill="#1A1A1A"/>
<path fill-rule="evenodd" clip-rule="evenodd" d="M139.425 188.427C133.813 188.07 128.245 187.87 123.217 187.546C119.187 191.577 115.205 195.678 111.319 199.853C116.291 200.352 121.589 200.835 126.866 201.447C131.026 196.955 135.33 192.497 139.423 188.424L139.425 188.427Z" fill="#1A1A1A"/>
<path fill-rule="evenodd" clip-rule="evenodd" d="M120.771 187.405C115.749 187.325 110.982 187.224 106.506 187.031C102.874 190.757 98.8791 194.659 95.3606 198.379C99.5949 198.795 104.195 199.117 108.945 199.504C112.792 195.442 116.846 191.337 120.771 187.408V187.405Z" fill="#1A1A1A"/>
<path fill-rule="evenodd" clip-rule="evenodd" d="M104.349 187.014C99.9149 186.905 95.748 186.912 91.6377 186.814C88.1475 190.136 84.666 193.67 81.2847 197.31C85.1447 197.52 89.1376 197.799 93.3001 198.286C96.7642 194.583 100.705 190.664 104.352 187.011L104.349 187.014Z" fill="#1A1A1A"/>
<path fill-rule="evenodd" clip-rule="evenodd" d="M89.7229 186.696C85.8084 186.616 82.1594 186.685 78.617 186.57C75.2683 189.779 72.0109 192.978 68.845 196.152C72.1807 196.299 75.6708 196.719 79.4091 197.124C82.8165 193.649 86.2958 190.058 89.7229 186.696Z" fill="#1A1A1A"/>
<path fill-rule="evenodd" clip-rule="evenodd" d="M76.909 186.49C73.3992 186.557 70.3442 186.392 67.1434 186.423C63.9883 189.467 60.9203 192.398 57.948 195.379C60.9007 195.646 63.9818 195.897 67.2457 196.1C70.4095 192.869 73.6277 189.814 76.909 186.49Z" fill="#1A1A1A"/>
<path fill-rule="evenodd" clip-rule="evenodd" d="M65.6789 186.315C62.5456 186.28 59.706 186.269 56.8708 186.167C53.9638 188.972 51.1525 191.744 48.3281 194.572C50.8609 195.062 53.6091 195.185 56.4856 195.384C59.5711 192.322 62.4672 189.364 65.6811 186.315H65.6789Z" fill="#1A1A1A"/>
<path fill-rule="evenodd" clip-rule="evenodd" d="M55.548 186.2C52.9021 186.2 50.2126 186.319 47.9192 186.256C45.2646 188.738 42.5447 191.396 39.8574 193.941C42.1661 194.077 44.5422 194.27 47.051 194.566C49.7644 191.755 52.6953 189 55.548 186.2Z" fill="#1A1A1A"/>
<path fill-rule="evenodd" clip-rule="evenodd" d="M153.486 173.473C147.583 173.536 141.886 173.621 136.564 173.753C132.68 177.643 128.807 181.385 124.981 185.243C130.217 185.419 135.724 185.681 141.253 185.919C145.398 181.733 149.556 177.49 153.486 173.476V173.473Z" fill="#1A1A1A"/>
<path fill-rule="evenodd" clip-rule="evenodd" d="M134.079 173.928C128.883 173.945 123.854 174.173 119.176 174.326C115.499 177.899 111.795 181.472 108.229 185.021C112.779 184.975 117.655 185.049 122.568 185.276C126.324 181.329 130.162 177.631 134.079 173.928Z" fill="#1A1A1A"/>
<path fill-rule="evenodd" clip-rule="evenodd" d="M116.811 174.365C112.205 174.456 107.744 174.638 103.531 174.826C100.174 178.052 96.7555 181.381 93.3328 184.88C97.3691 184.908 101.601 184.988 105.966 185.055C109.524 181.454 113.227 177.814 116.809 174.365H116.811Z" fill="#1A1A1A"/>
<path fill-rule="evenodd" clip-rule="evenodd" d="M101.597 174.848C97.4059 175.086 93.7874 175.159 89.9643 175.376C86.5699 178.529 83.4888 181.556 80.2271 184.707C83.8695 184.724 87.5751 184.685 91.544 184.763C94.7513 181.413 98.1762 178.085 101.597 174.848Z" fill="#1A1A1A"/>
<path fill-rule="evenodd" clip-rule="evenodd" d="M88.004 175.54C84.5226 175.607 81.1129 175.705 77.7206 175.904C74.5786 178.931 71.5715 181.805 68.6558 184.633C71.6955 184.787 74.9659 184.808 78.5257 184.731C81.6743 181.567 84.825 178.602 88.004 175.54Z" fill="#1A1A1A"/>
<path fill-rule="evenodd" clip-rule="evenodd" d="M76.0539 175.956C72.7356 176.183 69.8177 176.308 67.0173 176.421C64.0515 179.152 61.0183 181.907 58.3005 184.577C61.0727 184.622 63.971 184.713 67.15 184.633C70.0679 181.816 73.0228 178.948 76.0539 175.956Z" fill="#1A1A1A"/>
<path fill-rule="evenodd" clip-rule="evenodd" d="M65.272 176.75C62.3215 176.994 59.7104 177.131 57.0492 177.289C54.3358 179.855 51.4984 182.502 48.8765 185.15C51.3809 184.958 54.016 184.923 56.7663 184.811C59.4928 182.248 62.204 179.688 65.272 176.752V176.75Z" fill="#1A1A1A"/>
<path fill-rule="evenodd" clip-rule="evenodd" d="M146.59 161.448C141.188 161.755 136.074 161.965 131.131 162.368C127.466 165.86 123.928 169.241 120.351 172.88C125.229 172.551 130.108 172.517 135.395 172.363C138.988 168.717 142.739 165.077 146.588 161.448H146.59Z" fill="#1A1A1A"/>
<path fill-rule="evenodd" clip-rule="evenodd" d="M128.657 162.716C123.817 162.937 119.37 163.353 114.883 163.824C111.473 166.96 108.17 170.156 104.789 173.411C109.147 173.047 113.39 173.036 118.104 172.889C121.655 169.418 125.223 165.887 128.657 162.716Z" fill="#1A1A1A"/>
<path fill-rule="evenodd" clip-rule="evenodd" d="M112.811 164C108.551 164.328 104.602 164.748 100.602 165.181C97.3646 168.111 94.2378 171.162 90.9805 174.222C94.8362 173.831 98.6223 173.751 102.857 173.439C106.031 170.372 109.406 167.209 112.811 164Z" fill="#1A1A1A"/>
<path fill-rule="evenodd" clip-rule="evenodd" d="M98.6551 165.322C94.8864 165.657 91.3375 165.861 87.8147 166.196C84.7727 169.035 81.82 171.842 78.802 174.72C82.1921 174.545 85.5365 174.395 89.2899 174.227C92.4972 171.206 95.4695 168.269 98.6551 165.322Z" fill="#1A1A1A"/>
<path fill-rule="evenodd" clip-rule="evenodd" d="M86.063 166.408C82.8818 166.618 79.7136 166.919 76.4541 167.38C73.5928 169.992 70.7271 172.714 67.9441 175.319C70.9077 175.176 73.9801 174.882 77.1395 174.802C80.2184 171.922 83.1799 169.191 86.063 166.408Z" fill="#1A1A1A"/>
<path fill-rule="evenodd" clip-rule="evenodd" d="M66.7169 169.412C63.9187 169.758 61.2379 170.076 58.777 170.292C56.2485 172.614 53.5504 175.075 50.948 177.518C53.422 177.297 55.97 177.239 58.5115 177.081C61.0943 174.547 63.886 171.987 66.7169 169.414V169.412Z" fill="#1A1A1A"/>
<path fill-rule="evenodd" clip-rule="evenodd" d="M57.2669 170.422C54.869 170.632 52.5821 170.786 50.3627 171.065C48.0388 173.302 45.6954 175.393 43.4607 177.578C45.4234 177.55 47.6646 177.39 49.8035 177.323C52.1927 175.096 54.7842 172.671 57.2669 170.422Z" fill="#1A1A1A"/>
<path fill-rule="evenodd" clip-rule="evenodd" d="M140.746 151.543C135.885 152.117 131.198 152.669 126.474 153.231C123.128 156.343 119.862 159.36 116.424 162.524C121.059 161.922 125.408 161.66 130.367 161.126C133.755 157.849 137.276 154.763 140.746 151.543Z" fill="#1A1A1A"/>
<path fill-rule="evenodd" clip-rule="evenodd" d="M124.303 153.459C119.975 153.93 115.627 154.543 111.495 155.06C108.429 157.951 105.235 160.87 102.034 163.863C106.081 163.415 109.989 163.101 114.356 162.738C117.788 159.524 121.065 156.536 124.303 153.457V153.459Z" fill="#1A1A1A"/>
<path fill-rule="evenodd" clip-rule="evenodd" d="M109.517 155.292C105.675 155.729 101.906 156.246 98.0415 156.826C95.0975 159.587 92.284 162.115 89.2095 164.943C92.7279 164.608 96.3204 164.324 100.1 164.073C103.24 161.063 106.486 158.074 109.517 155.292Z" fill="#1A1A1A"/>
<path fill-rule="evenodd" clip-rule="evenodd" d="M96.3594 157.088C92.9476 157.609 89.5379 158.059 86.3001 158.496C83.4867 161.076 80.5448 163.664 77.7488 166.205C80.9604 165.876 84.122 165.529 87.4555 165.153C90.5388 162.363 93.4567 159.723 96.3594 157.088Z" fill="#1A1A1A"/>
<path fill-rule="evenodd" clip-rule="evenodd" d="M75.8645 160.717C72.9292 161.189 70.2114 161.513 67.6591 161.842C65.0219 164.255 62.3607 166.631 59.8606 169.061C62.3716 168.799 64.9414 168.54 67.7918 168.176C70.4443 165.711 73.0858 163.292 75.8645 160.719V160.717Z" fill="#1A1A1A"/>
<path fill-rule="evenodd" clip-rule="evenodd" d="M65.766 162.567C63.168 162.913 60.8528 163.277 58.4919 163.714C56.0375 165.899 53.6288 168.063 51.0503 170.392C53.2654 170.102 55.6611 169.92 58.0568 169.721C60.5656 167.323 63.1158 164.949 65.7682 162.565L65.766 162.567Z" fill="#1A1A1A"/>
<path fill-rule="evenodd" clip-rule="evenodd" d="M151.175 140.046C146.051 140.849 141.212 141.565 136.559 142.368C133.217 145.147 130.047 148.003 126.618 151.132C131.307 150.416 136.042 149.905 140.879 149.28C144.327 146.094 147.733 143.071 151.173 140.044L151.175 140.046Z" fill="#1A1A1A"/>
<path fill-rule="evenodd" clip-rule="evenodd" d="M134.351 142.6C129.771 143.387 125.397 144.002 121.106 144.744C118.134 147.499 115.02 150.156 111.865 153.043C116.028 152.441 120.325 151.913 124.67 151.253C127.854 148.362 131.035 145.545 134.351 142.6Z" fill="#1A1A1A"/>
<path fill-rule="evenodd" clip-rule="evenodd" d="M146.214 132.362C141.555 133.182 137.09 134.082 132.726 134.896C129.586 137.672 126.515 140.336 123.441 143.009C127.56 142.303 132.031 141.622 136.723 140.825C139.821 138.07 143.055 135.223 146.216 132.362H146.214Z" fill="#1A1A1A"/>
<path fill-rule="evenodd" clip-rule="evenodd" d="M196.887 135.277C190.185 136.201 183.945 137.06 178.009 137.676C174.059 141.076 170.443 144.564 166.944 147.836C172.706 147.354 178.842 146.661 185.348 145.962C189.049 142.433 192.898 138.856 196.885 135.279L196.887 135.277Z" fill="#1A1A1A"/>
<path fill-rule="evenodd" clip-rule="evenodd" d="M16.0333 201.24C14.6103 200.848 13.3069 200.433 12.0623 200.097C10.13 202.006 8.13255 203.953 6.2395 206.096C7.20126 206.596 8.33491 207.197 9.53167 207.743C11.5988 205.659 13.8226 203.38 16.0333 201.24Z" fill="#1A1A1A"/>
<path fill-rule="evenodd" clip-rule="evenodd" d="M21.3642 202.586C19.6953 202.194 18.1482 201.768 16.662 201.383C14.3926 203.676 12.2253 205.882 10.1604 207.976C11.3615 208.634 12.6845 209.249 14.1293 209.878C16.4793 207.442 18.9294 204.949 21.3642 202.586Z" fill="#1A1A1A"/>
<path fill-rule="evenodd" clip-rule="evenodd" d="M27.5591 203.99C25.6443 203.65 23.9035 203.179 22.2259 202.7C19.6801 205.273 17.23 207.71 14.9409 210.091C16.5076 210.597 18.0829 211.192 19.9521 211.664C22.4652 209.097 25.0785 206.518 27.5612 203.99H27.5591Z" fill="#1A1A1A"/>
<path fill-rule="evenodd" clip-rule="evenodd" d="M35.4684 205.568C33.2294 205.085 31.0557 204.574 28.8972 204.232C26.3579 206.749 23.6967 209.571 21.127 212.235C23.07 212.763 24.9653 213.535 26.9258 214.302C29.7153 211.302 32.6615 208.452 35.4684 205.565V205.568Z" fill="#1A1A1A"/>
<path fill-rule="evenodd" clip-rule="evenodd" d="M44.0611 206.987C41.4435 206.596 38.8389 206.204 36.6456 205.704C33.7821 208.543 30.838 211.43 27.9919 214.406C30.2049 215.126 32.5396 215.752 34.9505 216.433C37.8358 213.343 40.8734 210.22 44.0611 206.987Z" fill="#1A1A1A"/>
<path fill-rule="evenodd" clip-rule="evenodd" d="M53.8615 208.857C50.8479 208.392 48.0801 207.868 45.4386 207.312C42.1399 210.658 39.0501 213.871 36.1648 216.916C38.5888 217.608 41.2129 218.472 43.9067 219.283C47.2903 215.71 50.4192 212.428 53.8615 208.855V208.857Z" fill="#1A1A1A"/>
<path fill-rule="evenodd" clip-rule="evenodd" d="M64.926 211.179C61.4989 210.595 58.3155 209.935 55.2105 209.305C51.8901 212.832 48.587 216.228 45.2622 219.738C48.1083 220.664 51.1481 221.566 54.2618 222.475C57.7824 218.64 61.4489 214.797 64.926 211.179Z" fill="#1A1A1A"/>
<path fill-rule="evenodd" clip-rule="evenodd" d="M78.9239 213.207C74.9898 212.423 71.2233 211.837 67.7201 211.326C64.1255 214.905 60.4786 218.822 56.9058 222.646C60.2197 223.436 63.7969 224.286 67.3654 225.464C71.2951 221.153 75.0355 217.149 78.9261 213.207H78.9239Z" fill="#1A1A1A"/>
<path fill-rule="evenodd" clip-rule="evenodd" d="M93.3175 215.752C88.8852 214.888 84.5203 213.912 80.6906 213.157C76.7653 217.275 72.7921 221.335 69.0408 225.544C72.8203 226.697 76.8197 227.957 81.1846 228.987C85.1839 224.544 89.2159 220.233 93.3175 215.754V215.752Z" fill="#1A1A1A"/>
<path fill-rule="evenodd" clip-rule="evenodd" d="M110.427 218.803C105.294 217.911 100.202 217.139 95.8046 215.873C91.6639 220.435 87.4317 225.035 83.5042 229.515C87.869 230.776 92.4537 232.06 97.3082 233.28C101.747 228.305 105.997 223.596 110.429 218.803H110.427Z" fill="#1A1A1A"/>
<path fill-rule="evenodd" clip-rule="evenodd" d="M129.812 222.897C123.78 221.653 118.234 220.54 113.021 219.359C108.545 224.271 104.023 229.179 99.606 234.297C105.046 235.801 110.063 237.677 115.821 239.146C120.577 233.682 125.28 228.242 129.812 222.897Z" fill="#1A1A1A"/>
<path fill-rule="evenodd" clip-rule="evenodd" d="M152.217 228.019C145.163 226.639 138.912 225.334 132.608 223.964C127.904 229.359 123.21 234.851 118.51 240.22C124.396 242.163 130.63 244.065 137.171 246.013C142.345 239.713 147.263 233.791 152.217 228.019Z" fill="#1A1A1A"/>
<path fill-rule="evenodd" clip-rule="evenodd" d="M385.424 196.834C380.983 193.289 376.635 189.712 372.662 186.447C366.243 190.076 359.852 193.456 353.399 197.288C357 201.043 360.566 204.979 364.877 209.006C371.835 204.899 378.789 200.815 385.422 196.834H385.424Z" fill="#1A1A1A"/>
<path fill-rule="evenodd" clip-rule="evenodd" d="M167.579 189.559C165.813 187.782 164.087 186.129 162.292 184.713C159.792 186.462 157.187 188.325 154.615 190.097C156.212 191.779 157.72 193.586 159.341 195.618C162.109 193.551 164.87 191.5 167.582 189.559H167.579Z" fill="#1A1A1A"/>
<path fill-rule="evenodd" clip-rule="evenodd" d="M97.6584 123.922C96.9708 122.875 96.3398 121.784 95.7589 120.691C93.509 122.55 91.1067 124.563 88.748 126.523C89.1158 127.781 89.6358 128.93 90.2233 130.161C92.6908 128.09 95.1996 125.985 97.6563 123.922H97.6584Z" fill="#1A1A1A"/>
<path fill-rule="evenodd" clip-rule="evenodd" d="M462.913 305.62C457.362 301.281 452.127 297.124 447.041 293.465C440.42 295.499 433.923 297.908 427.106 300.206C432.049 304.205 436.915 308.527 441.915 313.183C449.026 310.513 456.3 308.107 462.915 305.618L462.913 305.62Z" fill="#1A1A1A"/>
<path fill-rule="evenodd" clip-rule="evenodd" d="M113.504 137.997C112.957 137.397 112.527 136.813 112.098 136.25C110.636 137.311 109.165 138.352 107.744 139.39C108.072 140.033 108.412 140.788 108.793 141.42C110.366 140.284 111.88 139.157 113.504 137.995V137.997Z" fill="#1A1A1A"/>
<path fill-rule="evenodd" clip-rule="evenodd" d="M163.889 110.572C162.571 110.012 161.322 109.516 160.086 109.06C158.221 110.326 156.358 111.635 154.452 113.016C155.492 113.641 156.635 114.197 157.934 114.916C159.875 113.403 161.883 111.99 163.889 110.575V110.572Z" fill="#1A1A1A"/>
<path fill-rule="evenodd" clip-rule="evenodd" d="M444.335 161.926C439.108 159.78 434.249 157.906 429.632 156.14C423.661 158.611 418.008 160.979 412.599 163.489C416.77 165.568 421.163 167.698 426.079 170.316C432.389 167.38 438.521 164.467 444.335 161.926Z" fill="#1A1A1A"/>
<path fill-rule="evenodd" clip-rule="evenodd" d="M142.515 107.227C141.719 106.852 141.122 106.361 140.491 105.991C138.973 106.982 137.526 108.101 136.063 109.181C136.599 109.655 137.093 110.215 137.739 110.648C139.195 109.538 140.853 108.363 142.515 107.227Z" fill="#1A1A1A"/>
<path fill-rule="evenodd" clip-rule="evenodd" d="M109.289 99.0513C108.867 98.744 108.405 98.5081 107.99 98.2246C106.895 99.0707 105.696 99.945 104.645 100.752C105.009 101.081 105.324 101.414 105.648 101.795C106.847 100.893 108.092 99.9731 109.289 99.0513Z" fill="#1A1A1A"/>
<path fill-rule="evenodd" clip-rule="evenodd" d="M29.0646 182.378C28.8861 181.924 28.6511 181.469 28.5293 181.032C27.6546 181.629 26.8386 182.311 25.9639 182.934C26.0313 183.462 26.1532 183.962 26.275 184.462C27.2607 183.763 28.1376 183.071 29.0646 182.378Z" fill="#1A1A1A"/>
<path fill-rule="evenodd" clip-rule="evenodd" d="M466.927 232.371C463.206 230.594 460.195 228.917 457.018 227.312C452.353 228.629 447.886 229.822 443.434 231.112C446.165 232.758 449.257 234.678 452.529 236.496C457.405 235.171 462.182 233.73 466.927 232.371Z" fill="#1A1A1A"/>
<path fill-rule="evenodd" clip-rule="evenodd" d="M193.112 101.977C191.806 101.592 190.472 101.328 189.343 100.934C187.526 102.118 185.607 103.347 183.888 104.487C184.982 104.968 186.007 105.377 187.217 105.827C189.025 104.587 191.14 103.219 193.112 101.977Z" fill="#1A1A1A"/>
<path fill-rule="evenodd" clip-rule="evenodd" d="M145.002 72.7154C144.173 72.5618 143.344 72.4298 142.53 72.3887C141.164 73.2543 139.863 74.2432 138.555 75.1911C139.33 75.3252 140.109 75.4724 140.89 75.6433C142.287 74.6219 143.644 73.6503 145.002 72.7154Z" fill="#1A1A1A"/>
<path fill-rule="evenodd" clip-rule="evenodd" d="M124.361 108.562C123.608 108.324 122.866 108.155 122.172 107.943C121.004 108.783 119.681 109.705 118.454 110.536C119.152 110.782 119.796 111.012 120.499 111.263C121.822 110.345 123.043 109.482 124.363 108.562H124.361Z" fill="#1A1A1A"/>
<path fill-rule="evenodd" clip-rule="evenodd" d="M106.621 127.869C105.868 127.622 105.163 127.339 104.471 127.157C103.37 127.904 102.16 128.704 100.999 129.449C101.697 129.696 102.395 129.955 103.046 130.25C104.201 129.464 105.413 128.674 106.621 127.869Z" fill="#1A1A1A"/>
<path fill-rule="evenodd" clip-rule="evenodd" d="M223.751 138.196C222.117 137.77 220.55 137.335 219.044 136.932C217.062 137.999 215.132 139.014 213.041 140.131C214.588 140.483 216.107 140.966 217.624 141.414C219.595 140.314 221.753 139.224 223.751 138.196Z" fill="#1A1A1A"/>
<path fill-rule="evenodd" clip-rule="evenodd" d="M88.3913 144.768C87.6928 144.524 86.9878 144.201 86.3459 143.944C85.2645 144.664 84.2897 145.324 83.2583 146.028C83.8458 146.3 84.4377 146.607 85.0861 146.936C86.1697 146.188 87.2576 145.534 88.3913 144.766V144.768Z" fill="#1A1A1A"/>
<path fill-rule="evenodd" clip-rule="evenodd" d="M97.256 116.123C96.6446 115.965 96.0462 115.905 95.4391 115.792C94.5492 116.398 93.6157 117.075 92.7192 117.644C93.2197 117.753 93.8289 117.908 94.3381 118.082C95.326 117.4 96.2638 116.742 97.256 116.125V116.123Z" fill="#1A1A1A"/>
<path fill-rule="evenodd" clip-rule="evenodd" d="M546 272.243C541.035 270.75 535.784 268.977 530.477 267.439C525.562 268.49 520.252 269.239 515.261 270.159C520.033 271.617 525.2 273.327 529.974 275.021C535.551 274.084 540.71 273.221 546 272.245V272.243Z" fill="#1A1A1A"/>
<path fill-rule="evenodd" clip-rule="evenodd" d="M164.4 81.6377C163.306 81.681 162.32 81.6918 161.335 81.7005C160.179 82.434 158.974 83.2001 157.729 84.0203C158.71 83.9748 159.609 84.057 160.599 84.0484C161.844 83.2304 163.09 82.4038 164.398 81.6377H164.4Z" fill="#1A1A1A"/>
<path fill-rule="evenodd" clip-rule="evenodd" d="M5.72163 202.389C5.38653 202.14 5.05144 201.883 4.83168 201.645C4.20719 202.043 3.52395 202.497 2.95386 202.861C3.17363 203.127 3.44997 203.354 3.72631 203.64C4.40955 203.179 5.03839 202.794 5.72163 202.391V202.389Z" fill="#1A1A1A"/>
<path fill-rule="evenodd" clip-rule="evenodd" d="M300.767 175.865C298.295 175.263 295.647 174.904 293.125 174.359C290.641 175.222 288.38 175.977 286.158 176.865C288.447 177.284 290.926 177.875 293.513 178.466C295.93 177.574 298.413 176.717 300.765 175.865H300.767Z" fill="#1A1A1A"/>
<path fill-rule="evenodd" clip-rule="evenodd" d="M292.329 220.698C290.099 219.307 287.892 217.922 285.673 216.717C282.566 217.909 279.398 219.311 276.208 220.664C278.273 222.038 280.325 223.377 282.398 224.94C285.856 223.373 289.131 222.059 292.329 220.696V220.698Z" fill="#1A1A1A"/>
<path fill-rule="evenodd" clip-rule="evenodd" d="M238.325 165.335C236.315 164.188 234.461 163.164 232.74 162.167C230.094 163.632 227.337 165.187 224.582 166.771C226.314 167.834 227.861 169.111 229.791 170.208C232.72 168.565 235.516 166.932 238.325 165.335Z" fill="#1A1A1A"/>
</g>
</g>
<path d="M0 1H1920V-1H0V1ZM1920 366H0V368H1920V366Z" fill="#262626" mask="url(#path-1-inside-1_4461_358)"/>
<defs>
<clipPath id="clip0_4461_358">
<path d="M0 0H1920V367H0V0Z" fill="white"/>
</clipPath>
<clipPath id="clip1_4461_358">
<rect width="725" height="394" fill="white" transform="matrix(-1 0 0 1 2012 36)"/>
</clipPath>
<clipPath id="clip2_4461_358">
<rect width="566" height="308" fill="white" transform="translate(-20 59)"/>
</clipPath>
</defs>
</svg>
